<svg width="31" height="31" viewBox="0 0 31 31" fill="none" xmlns="http://www.w3.org/2000/svg">
<g clip-path="url(#clip0_2122_1043)">
<path d="M19.1289 28.5781H11.6289C4.84141 28.5781 1.94141 25.6781 1.94141 18.8906V11.3906C1.94141 4.60313 4.84141 1.70312 11.6289 1.70312H19.1289C25.9164 1.70312 28.8164 4.60313 28.8164 11.3906V18.8906C28.8164 25.6781 25.9164 28.5781 19.1289 28.5781ZM11.6289 3.57812C5.86641 3.57812 3.81641 5.62812 3.81641 11.3906V18.8906C3.81641 24.6531 5.86641 26.7031 11.6289 26.7031H19.1289C24.8914 26.7031 26.9414 24.6531 26.9414 18.8906V11.3906C26.9414 5.62812 24.8914 3.57812 19.1289 3.57812H11.6289Z" fill="#383838"/>
</g>
<defs>
<clipPath id="clip0_2122_1043">
<rect width="30" height="30" fill="white" transform="translate(0.378906 0.140625)"/>
</clipPath>
</defs>
</svg>
