<svg width="18" height="18" viewBox="0 0 18 18" fill="none" xmlns="http://www.w3.org/2000/svg">
<g clip-path="url(#clip0_2133_1043)">
<g clip-path="url(#clip1_2133_1043)">
<path d="M16.8336 9.58738H1.52514C1.0021 9.58738 0.568359 9.15364 0.568359 8.63061C0.568359 8.10757 1.0021 7.67383 1.52514 7.67383L16.8336 7.67383C17.3566 7.67383 17.7904 8.10757 17.7904 8.63061C17.7904 9.15364 17.3566 9.58738 16.8336 9.58738Z" fill="#383838"/>
<path d="M9.17943 17.2415C8.6564 17.2415 8.22266 16.8078 8.22266 16.2848L8.22266 0.976309C8.22266 0.453271 8.6564 0.0195312 9.17943 0.0195312C9.70247 0.0195312 10.1362 0.453271 10.1362 0.976309V16.2848C10.1362 16.8078 9.70247 17.2415 9.17943 17.2415Z" fill="#383838"/>
</g>
</g>
<defs>
<clipPath id="clip0_2133_1043">
<rect width="18" height="18" fill="white"/>
</clipPath>
<clipPath id="clip1_2133_1043">
<rect width="30.6169" height="30.6169" fill="white" transform="translate(-6.12891 -6.67773)"/>
</clipPath>
</defs>
</svg>
