<svg viewBox="0 0 14 19" fill="none" xmlns="http://www.w3.org/2000/svg" preserveAspectRatio="none">
    <path fill="#383838" d="M6.84206 0.317383C3.06278 0.317383 0.0605469 3.39023 0.0605469 7.09891C0.0605469 9.64199 0.872946 10.4191 5.39397 17.6245C6.06505 18.684 7.58381 18.684 8.25488 17.6245C12.7759 10.4191 13.6236 9.64199 13.6236 7.09891C13.6236 3.35497 10.5507 0.317383 6.84206 0.317383ZM6.84206 16.7061C2.32103 9.50071 1.7559 9.04152 1.7559 7.09891C1.7559 4.30861 4.01642 2.01277 6.84206 2.01277C9.63244 2.01277 11.9282 4.30861 11.9282 7.09891C11.9282 9.04152 11.3631 9.4301 6.84206 16.7061ZM4.01642 7.09891C4.01642 8.68835 5.25269 9.92455 6.84206 9.92455C8.39616 9.92455 9.6677 8.68835 9.6677 7.09891C9.6677 5.54481 8.39616 4.27327 6.84206 4.27327C5.25269 4.27327 4.01642 5.54481 4.01642 7.09891Z"/>
</svg>
